<?xml version='1.0' encoding='utf-8'?>
<svg xmlns="http://www.w3.org/2000/svg" width="2000px" height="2500px" viewBox="0 0 2000 2500" version="1.1" id="SVGRoot"> <defs id="defs3848"/> <metadata id="metadata3851"> </metadata> <g id="layer2" style="display:inline"> <rect style="display:inline;fill:#f4e3d7;fill-opacity:1;stroke:none;stroke-width:13;stroke-linecap:butt;stroke-linejoin:miter;stroke-miterlimit:4;stroke-dasharray:none" id="rect4053" width="2000" height="2500" x="0" y="0"/> </g> <g id="layer1" style="display:inline"> <path style="display:inline;opacity:1;vector-effect:none;fill:#f4e3d7;fill-opacity:1;stroke:none;stroke-width:12;stroke-linecap:round;stroke-linejoin:miter;stroke-miterlimit:4;stroke-dasharray:none;stroke-dashoffset:0;stroke-opacity:1" d="m 792.43521,1815.6116 c 0,0 -39.6,0.9 -57.6,-34.5 -18,-35.4 -18,-50.1 -18,-50.1 0,0 -49.8,-30.3 -81.6,-72 -31.8,-41.7 -35.1,-69 -36.3,-81.9 -1.2,-12.9 0.9,-17.4 0.9,-17.4 0,0 -34.2,-52.2 -44.4,-102.3 -10.2,-50.1 -9,-112.5 -9,-112.5 0,0 -45.9,-15.6 -49.5,-69 -3.6,-53.4 15,-73.5 15,-73.5 0,0 -23.1,-10.8 -18.6,-38.1 4.5,-27.3 34.8,-36 23.4,-55.2 -11.4,-19.2 -44.1,-21 -54.3,-51 -10.2,-30 -33,-145.50001 -30,-263.10001 3,-117.6 16.8,-193.2 64.8,-204 48,-10.79994 130.2,68.4 178.8,135 48.6,66.6 112.2,193.2 112.2,193.2 l 53.4,38.4 c 0,0 18.43248,-4.94028 35.61516,0.363 17.18268,5.3034 82.73148,0.21216 82.73148,0.21216 0,0 18.66768,-16.97052 40.51735,-14.42496 21.8496,2.54556 49.2146,17.607 49.2146,17.607 l 115.8241,-3.8184 50.9117,-42.85068 c 0,0 55.7906,-132.37044 147.0074,-234.1938 91.2168,-101.82332 157.402,-119.21815 183.2822,-47.09328 25.88,72.12492 26.3043,256.25556 10.1823,358.07894 -16.1221,101.82333 -59.1863,108.32003 -59.1863,108.32003 0,0 -21,6 -16.2,22.2 4.8,16.2 30.9,23.4 26.1,48 -4.8,24.6 -19.5,33.9 -19.5,33.9 0,0 31.4511,45.1082 14.0562,89.656 -17.3948,44.5477 -47.9419,52.6087 -47.9419,52.6087 0,0 8.0611,64.4881 -11.4551,124.3093 -19.5162,59.8213 -43.6992,92.9138 -43.6992,92.9138 0,0 19.5162,30.1228 -31.8198,95.0351 -51.336,64.9125 -88.2469,74.2463 -88.2469,74.2463 0,0 -1.697,42.8507 -25.4558,64.9124 -23.7588,22.0617 -48.3661,21.2132 -48.3661,21.2132 0,0 -10.1824,19.9404 -50.9117,39.8809 -40.7293,19.9404 -47.9418,16.9705 -47.9418,16.9705 0,0 -9.3339,13.5764 -25.8802,15.2735 -16.5463,1.697 -18.2433,-4.6669 -35.2139,7.6368 -16.9706,12.3036 -30.547,12.7279 -52.60879,11.4551 -22.06168,-1.2728 -56.85136,-19.9404 -56.85136,-19.9404 l -26.72868,-2.5456 -17.39484,-14.425 -47.9418,-14.4249 z" id="path4096"/> <path style="display:inline;opacity:1;vector-effect:none;fill:#deaa87;fill-opacity:1;stroke:none;stroke-width:12;stroke-linecap:round;stroke-linejoin:miter;stroke-miterlimit:4;stroke-dasharray:none;stroke-dashoffset:0;stroke-opacity:1" d="m 464.6645,943.48018 c 0,0 -11.4,-125.4 -3.6,-223.8 7.8,-98.4 28.2,-120 61.2,-109.2 33,10.8 73.8,54.6 139.8,138 66,83.4 88.8,140.4 84.6,180 -4.2,39.6 -45,31.8 -37.2,93.60002 7.8,61.8 19.8,90.6 -6.6,96.6 -26.4,6 -19.5,-26.7 -32.4,-30.3 -12.9,-3.6 -23.4,12.9 -23.4,12.9 0,0 -39.9,-3 -75,-52.5 -35.1,-49.5 -26.1,-78.3 -45.3,-91.80002 -19.2,-13.5 -62.1,-13.5 -62.1,-13.5 z" id="path4079"/> <path style="display:inline;opacity:1;vector-effect:none;fill:#deaa87;fill-opacity:1;stroke:none;stroke-width:12;stroke-linecap:round;stroke-linejoin:miter;stroke-miterlimit:4;stroke-dasharray:none;stroke-dashoffset:0;stroke-opacity:1" d="m 1539.9401,944.09746 c 0,0 11.4,-125.4 3.6,-223.8 -7.8,-98.4 -28.2,-120 -61.2,-109.2 -33,10.8 -73.8,54.6 -139.8,138 -66,83.4 -88.8,140.4 -84.6,180 4.2,39.6 45,31.8 37.2,93.60004 -7.8,61.8 -19.8,90.6 6.6,96.6 26.4,6 19.5,-26.7 32.4,-30.3 12.9,-3.6 23.4,12.9 23.4,12.9 0,0 39.9,-3 75,-52.5 35.1,-49.50002 26.1,-78.30002 45.3,-91.80004 19.2,-13.5 62.1,-13.5 62.1,-13.5 z" id="path4079-6"/> <path style="display:inline;opacity:1;vector-effect:none;fill:#784421;fill-opacity:1;stroke:none;stroke-width:12;stroke-linecap:round;stroke-linejoin:miter;stroke-miterlimit:4;stroke-dasharray:none;stroke-dashoffset:0;stroke-opacity:1" d="m 1158.3304,1411.6121 -19.0919,41.79 53.6694,5.5154 z" id="path4098"/> <path style="display:inline;opacity:1;vector-effect:none;fill:#784421;fill-opacity:1;stroke:none;stroke-width:12;stroke-linecap:round;stroke-linejoin:miter;stroke-miterlimit:4;stroke-dasharray:none;stroke-dashoffset:0;stroke-opacity:1" d="m 842.46578,1409.4907 -32.66832,50.0632 50.91168,-5.7276 z" id="path4100"/> <path style="display:inline;opacity:1;vector-effect:none;fill:#ff6600;fill-opacity:1;stroke:none;stroke-width:12;stroke-linecap:round;stroke-linejoin:miter;stroke-miterlimit:4;stroke-dasharray:none;stroke-dashoffset:0;stroke-opacity:1" d="m 674.6693,1368.5492 c 0,0 8.27316,68.7309 54.94224,82.7315 46.66908,14.0008 82.51932,8.4853 82.51932,8.4853 l 31.3956,-50.6995 -22.06176,-19.0919 c 0,0 -16.54632,58.3364 -60.88188,52.1844 -44.33556,-6.1518 -58.33632,-51.7602 -58.33632,-51.7602 l -4.2426,-28.0014 z" id="path4102"/> <path style="display:inline;opacity:1;vector-effect:none;fill:#00222b;fill-opacity:1;stroke:none;stroke-width:12;stroke-linecap:round;stroke-linejoin:miter;stroke-miterlimit:4;stroke-dasharray:none;stroke-dashoffset:0;stroke-opacity:1" d="m 699.06446,1363.4581 c 0,0 6.57612,71.9128 54.30588,78.9131 47.72964,7.0003 69.57924,-49.0025 69.57924,-49.0025 l -70.42776,-31.1834 z" id="path4104"/> <path style="display:inline;opacity:1;vector-effect:none;fill:#ff6600;fill-opacity:1;stroke:none;stroke-width:12;stroke-linecap:round;stroke-linejoin:miter;stroke-miterlimit:4;stroke-dasharray:none;stroke-dashoffset:0;stroke-opacity:1" d="m 1326.5435,1367.5264 c 0,0 -8.273,68.7307 -54.9421,82.7314 -46.6691,14.0008 -82.5194,8.4854 -82.5194,8.4854 l -31.3955,-50.6997 22.0618,-19.0919 c 0,0 16.5463,58.3364 60.8818,52.1846 44.3356,-6.1518 58.3364,-51.7602 58.3364,-51.7602 l 4.2426,-28.0014 z" id="path4102-3"/> <path style="display:inline;opacity:1;vector-effect:none;fill:#00222b;fill-opacity:1;stroke:none;stroke-width:12;stroke-linecap:round;stroke-linejoin:miter;stroke-miterlimit:4;stroke-dasharray:none;stroke-dashoffset:0;stroke-opacity:1" d="m 1302.1484,1362.4351 c 0,0 -6.5761,71.9128 -54.3058,78.9132 -47.7297,7.0003 -69.5793,-49.0025 -69.5793,-49.0025 l 70.4278,-31.1834 z" id="path4104-9"/> <path style="display:inline;opacity:1;vector-effect:none;fill:#f9f9f9;fill-opacity:1;stroke:none;stroke-width:12;stroke-linecap:round;stroke-linejoin:miter;stroke-miterlimit:4;stroke-dasharray:none;stroke-dashoffset:0;stroke-opacity:1" d="m 805.9529,1396.3817 c 0,0 -21.0936,-13.6393 -51.16068,-19.8364 -21.89724,-4.5132 -39.3018,-2.6636 -39.3018,-2.6636 0,0 8.55,19.5 31.95,22.8 23.4,3.3 58.51248,-0.3 58.51248,-0.3 z" id="path4124-5"/> <path style="display:inline;opacity:1;vector-effect:none;fill:#f9f9f9;fill-opacity:1;stroke:none;stroke-width:12;stroke-linecap:round;stroke-linejoin:miter;stroke-miterlimit:4;stroke-dasharray:none;stroke-dashoffset:0;stroke-opacity:1" d="m 1196.3521,1396.4802 c 0,0 21.0936,-13.6393 51.1606,-19.8364 21.8973,-4.5132 39.3018,-2.6636 39.3018,-2.6636 0,0 -8.55,19.5 -31.95,22.8 -23.4,3.3 -58.5124,-0.3 -58.5124,-0.3 z" id="path4124-5-2"/> <path style="display:inline;opacity:1;vector-effect:none;fill:#d38d5f;fill-opacity:1;stroke:none;stroke-width:12;stroke-linecap:round;stroke-linejoin:miter;stroke-miterlimit:4;stroke-dasharray:none;stroke-dashoffset:0;stroke-opacity:1" d="m 478.4645,943.48018 c 0,0 -10.37376,-82.36188 -9.24816,-156.00132 1.65684,-108.4002 16.36416,-161.94372 39.84816,-163.79868 22.81716,-1.80216 84.2778,56.83056 134.05932,123.55896 45.54924,61.0554 77.6874,127.293 76.54068,154.24104 -2.4,56.4 -49.8,48.3 -36,120.60002 9.7512,51.0877 5.748,56.8027 -5.49504,48.1054 -11.24292,-8.6975 -27.1152,-7.3306 -36.69876,5.1972 -6.84096,8.9425 -32.54856,-4.2816 -54.4062,-25.4026 -26.7,-25.8 -42.9,-77.1 -42.9,-77.1 0,0 8.7,73.5 55.5,104.1 46.8,30.6 50.4,24.6 50.4,24.6 0,0 1.2,-19.2 20.1,-13.5 18.9,5.7 13.5,36 37.2,29.1 23.7,-6.9 1.8,-89.7 1.8,-89.7 0,0 -7.8,-16.8 18.9,-62.10002 26.7,-45.3 18.3,-74.4 9.6,-94.5 -8.7,-20.1 -76.5,-126 -101.4,-157.5 -24.9,-31.5 -110.4,-123.3 -139.5,-103.2 -29.1,20.1 -41.1,77.7 -41.1,191.1 0,113.4 11.4,144.6 11.4,144.6 z" id="path4222"/> <path style="display:inline;opacity:1;vector-effect:none;fill:#d38d5f;fill-opacity:1;stroke:none;stroke-width:12;stroke-linecap:round;stroke-linejoin:miter;stroke-miterlimit:4;stroke-dasharray:none;stroke-dashoffset:0;stroke-opacity:1" d="m 1523.8405,943.57882 c 0,0 10.3737,-82.36188 9.2481,-156.00132 -1.6569,-108.4002 -16.3643,-161.94372 -39.8481,-163.79868 -22.8172,-1.80228 -84.2778,56.83056 -134.0594,123.55896 -45.5493,61.05528 -77.6874,127.293 -76.5406,154.24104 2.4,56.4 49.8,48.3 36,120.59998 -9.7512,51.0878 -5.748,56.8028 5.4949,48.1053 11.243,-8.6974 27.1152,-7.3305 36.6989,5.1973 6.8408,8.9424 32.5484,-4.2817 54.4062,-25.4026 26.7,-25.8 42.9,-77.09996 42.9,-77.09996 0,0 -8.7,73.49996 -55.5,104.09996 -46.8,30.6 -50.4,24.6 -50.4,24.6 0,0 -1.2,-19.2 -20.1,-13.5 -18.9,5.7 -13.5,36 -37.2,29.1 -23.7,-6.9 -1.8,-89.7 -1.8,-89.7 0,0 7.8,-16.8 -18.9,-62.09998 -26.7,-45.3 -18.3,-74.4 -9.6,-94.5 8.7,-20.1 76.5,-126 101.4,-157.5 24.9,-31.5 110.4,-123.3 139.5,-103.2 29.1,20.1 41.1,77.7 41.1,191.1 0,113.4 -11.4,144.6 -11.4,144.6 z" id="path4222-6"/> <path style="display:inline;opacity:1;vector-effect:none;fill:#e9c6af;fill-opacity:1;stroke:none;stroke-width:12;stroke-linecap:round;stroke-linejoin:miter;stroke-miterlimit:4;stroke-dasharray:none;stroke-dashoffset:0;stroke-opacity:1" d="m 1281.2645,1724.6802 c 0,0 9,-51.6 49.8,-90.6 40.8,-39 69,-78 69,-78 0,0 17.4,49.2 -33,100.2 -50.4,51 -84,75 -84,75 z" id="path4244"/> <path style="display:inline;opacity:1;vector-effect:none;fill:#deaa87;fill-opacity:1;stroke:none;stroke-width:12;stroke-linecap:round;stroke-linejoin:miter;stroke-miterlimit:4;stroke-dasharray:none;stroke-dashoffset:0;stroke-opacity:1" d="m 1309.7494,1712.9802 c 0,0 0.1973,-18.8213 17.9574,-48.0452 20.0261,-32.9525 43.9891,-51.3914 59.3184,-73.6946 17.3849,-25.294 16.9393,-28.8602 16.9393,-28.8602 l -10.5,2.7 -85.8,96.3 -27.9,67.8 13.5,-4.5 z" id="path4246"/> <path style="display:inline;opacity:1;vector-effect:none;fill:#e9c6af;fill-opacity:1;stroke:none;stroke-width:12;stroke-linecap:round;stroke-linejoin:miter;stroke-miterlimit:4;stroke-dasharray:none;stroke-dashoffset:0;stroke-opacity:1" d="m 721.04042,1724.5817 c 0,0 -9,-51.6001 -49.8,-90.6001 -40.8,-39 -69,-78 -69,-78 0,0 -17.4,49.2 33,100.2 50.4,51.0001 84,75.0001 84,75.0001 z" id="path4244-2"/> <path style="display:inline;opacity:1;vector-effect:none;fill:#deaa87;fill-opacity:1;stroke:none;stroke-width:12;stroke-linecap:round;stroke-linejoin:miter;stroke-miterlimit:4;stroke-dasharray:none;stroke-dashoffset:0;stroke-opacity:1" d="m 692.55542,1712.8817 c 0,0 -0.19716,-18.8214 -17.95728,-48.0454 -20.0262,-32.9525 -43.98912,-51.3912 -59.3184,-73.6944 -17.385,-25.2941 -16.93932,-28.8603 -16.93932,-28.8603 l 10.5,2.7 85.8,96.3 27.9,67.8001 -13.5,-4.5 z" id="path4246-7"/> <path style="display:inline;opacity:1;vector-effect:none;fill:#deaa87;fill-opacity:1;stroke:none;stroke-width:12;stroke-linecap:round;stroke-linejoin:miter;stroke-miterlimit:4;stroke-dasharray:none;stroke-dashoffset:0;stroke-opacity:1" d="m 1401.8959,1135.316 c 0,0 14.527,11.1801 23.4,5.7 8.0859,-4.9939 4.1485,-18.0363 4.1485,-18.0363 0,0 20.4,34.5 11.1,38.7 -9.3,4.2 -27,-9.3 -27,-9.3 z" id="path4339-2"/> <path style="display:inline;opacity:1;vector-effect:none;fill:#d38d5f;fill-opacity:1;stroke:none;stroke-width:12;stroke-linecap:round;stroke-linejoin:miter;stroke-miterlimit:4;stroke-dasharray:none;stroke-dashoffset:0;stroke-opacity:1" d="m 1409.866,1146.7667 c 0,0 14.5271,11.1799 23.4,5.7 8.086,-4.9941 4.1485,-18.0365 4.1485,-18.0365 0,0 20.4,34.5 11.1,38.7 -9.3,4.2 -27,-9.3 -27,-9.3 z" id="path4339"/> <path style="display:inline;opacity:1;vector-effect:none;fill:#deaa87;fill-opacity:1;stroke:none;stroke-width:12;stroke-linecap:round;stroke-linejoin:miter;stroke-miterlimit:4;stroke-dasharray:none;stroke-dashoffset:0;stroke-opacity:1" d="m 600.40898,1135.2175 c 0,0 -14.52696,11.1799 -23.39988,5.7 -8.08596,-4.9939 -4.14852,-18.0363 -4.14852,-18.0363 0,0 -20.4,34.5 -11.1,38.7 9.3,4.2 26.99988,-9.3 26.99988,-9.3 z" id="path4339-2-5"/> <path style="display:inline;opacity:1;vector-effect:none;fill:#d38d5f;fill-opacity:1;stroke:none;stroke-width:12;stroke-linecap:round;stroke-linejoin:miter;stroke-miterlimit:4;stroke-dasharray:none;stroke-dashoffset:0;stroke-opacity:1" d="m 592.43894,1146.668 c 0,0 -14.52708,11.1801 -23.4,5.7 -8.08596,-4.9939 -4.14852,-18.0363 -4.14852,-18.0363 0,0 -20.4,34.5 -11.1,38.7 9.3,4.2 27,-9.3 27,-9.3 z" id="path4339-8"/> <path style="display:inline;opacity:1;vector-effect:none;fill:none;fill-opacity:1;stroke:#00222b;stroke-width:12;stroke-linecap:round;stroke-linejoin:miter;stroke-miterlimit:4;stroke-dasharray:none;stroke-dashoffset:0;stroke-opacity:1" d="m 1001.1406,1819.5419 c 0,0 -87.39842,54.3059 -117.09698,48.7904 -29.69844,-5.5154 -68.73072,-24.1831 -95.4594,-65.3367 -26.72856,-41.1536 -19.09188,-85.2771 6.36396,-98.4292" id="path5011"/> <path style="display:inline;opacity:1;vector-effect:none;fill:none;fill-opacity:1;stroke:#00222b;stroke-width:12;stroke-linecap:round;stroke-linejoin:miter;stroke-miterlimit:4;stroke-dasharray:none;stroke-dashoffset:0;stroke-opacity:1" d="m 772.0379,1741.4773 c 0,0 -14.84916,-24.183 -2.54556,-47.9418 12.30372,-23.7588 23.7588,-28.0015 23.7588,-28.0015" id="path5013"/> <path style="display:inline;opacity:1;vector-effect:none;fill:none;fill-opacity:1;stroke:#00222b;stroke-width:12;stroke-linecap:round;stroke-linejoin:miter;stroke-miterlimit:4;stroke-dasharray:none;stroke-dashoffset:0;stroke-opacity:1" d="m 771.18938,1688.4443 c 0,0 -11.03088,-2.5456 -9.75804,-23.7588 1.27284,-21.2133 9.33384,-22.0618 -2.54556,-41.1537 -11.8794,-19.0918 -48.79044,-53.8814 -48.79044,-53.8814" id="path5015"/> <path style="display:inline;opacity:1;vector-effect:none;fill:none;fill-opacity:1;stroke:#00222b;stroke-width:12;stroke-linecap:round;stroke-linejoin:miter;stroke-miterlimit:4;stroke-dasharray:none;stroke-dashoffset:0;stroke-opacity:1" d="m 592.5269,1351.2317 c 0,0 -80.1786,-5.4603 -92.7786,-61.2603 -12.6,-55.8 15.14052,-91.1397 15.14052,-91.1397 0,0 -22.2,-10.8 -21.6,-38.4 0.6,-27.6 49.212,-36.5079 15.80064,-63.522 -25.2,-20.3751 -59.00064,6.522 -72.80064,-200.47804 -13.8,-207 7.8,-383.39994 141,-277.2 133.2,106.2 210.6,296.4 210.6,296.4 0,0 29.88852,12.43032 37.59408,43.3758 8.29704,33.32138 0.80592,55.02424 -22.59408,67.02424 -23.4,12 -40.66692,0.2964 -40.66692,0.2964" id="path5025"/> <path style="display:inline;opacity:1;vector-effect:none;fill:none;fill-opacity:1;stroke:#00222b;stroke-width:12;stroke-linecap:round;stroke-linejoin:miter;stroke-miterlimit:4;stroke-dasharray:none;stroke-dashoffset:0;stroke-opacity:1" d="m 520.36154,1009.3346 c -7.9092,19.8365 -6.07272,36.4971 25.12728,58.0971 31.2,21.6 37.88676,40.7984 15.6,72 -22.5,31.5 4.8,43.2 20.4,20.4 15.6,-22.8 25.2,-31.2 49.2,-28.8 24,2.4 7.31436,-39.3727 30,-43.2 26.35944,-4.4471 16.42956,30.9513 39.6,30.6 32.4018,-0.4912 13.2,-46.2 9.6,-87 -3.6,-40.80002 4.8,-49.20002 20.4,-68.40004 15.6,-19.2 29.4,-46.2 1.8,-106.2 -27.6,-60 -178.74864,-272.57124 -234,-245.4 -58.70688,30.28944 -41.10372,273.7614 -32.63568,334.97484 38.8014,-8.65368 69.8454,5.93964 79.17924,40.72934 9.33384,34.78966 19.1076,55.18166 42.42648,78.06456 28.88004,28.3405 56.64444,36.8179 56.64444,36.8179" id="path5027"/> <path style="display:inline;opacity:1;vector-effect:none;fill:none;fill-opacity:1;stroke:#00222b;stroke-width:12;stroke-linecap:round;stroke-linejoin:miter;stroke-miterlimit:4;stroke-dasharray:none;stroke-dashoffset:0;stroke-opacity:1" d="m 826.58882,998.73168 c 0,0 16.79904,5.36122 17.4,29.70002 0.6,24.3 -24,38.7 -45.9,43.2 -21.9,4.5 -35.7,-3.9 -35.7,-3.9" id="path5031"/> <path style="display:inline;opacity:1;vector-effect:none;fill:none;fill-opacity:1;stroke:#00222b;stroke-width:12;stroke-linecap:round;stroke-linejoin:miter;stroke-miterlimit:4;stroke-dasharray:none;stroke-dashoffset:0;stroke-opacity:1" d="m 846.08882,1026.6317 c 0,0 26.74032,0.3887 27.6,29.4 1.2,40.5 -58.8,51.9 -58.8,51.9" id="path5048"/> <path style="display:inline;opacity:1;vector-effect:none;fill:#ff4c19;fill-opacity:1;stroke:#00222b;stroke-width:12;stroke-linecap:round;stroke-linejoin:miter;stroke-miterlimit:4;stroke-dasharray:none;stroke-dashoffset:0;stroke-opacity:1" d="m 1033.8089,1787.2979 c 11.2431,-19.7284 11.2431,-39.8811 11.2431,-39.8811 0,0 11.8147,-2.4867 24.1147,-11.9367 12.3,-9.45 16.2,-22.8 16.2,-22.8 0,0 10.7652,-28.6135 -20.4,-31.35 -20.3359,-1.7856 -63.8261,18.5504 -63.8261,18.5504 0,0 -43.49018,-20.3359 -63.8261,-18.5503 -31.16532,2.7365 -20.4,31.35 -20.4,31.35 0,0 3.9,13.35 16.2,22.8 12.3,9.45 24.11472,11.9368 24.11472,11.9368 0,0 0,20.1526 11.24304,39.8809 15.9,27.9 32.66834,32.244 32.66834,32.244 0,0 16.7683,-4.344 32.6683,-32.244 z" id="path5058-0"/> <path style="display:inline;opacity:1;vector-effect:none;fill:none;fill-opacity:1;stroke:#00222b;stroke-width:12;stroke-linecap:round;stroke-linejoin:miter;stroke-miterlimit:4;stroke-dasharray:none;stroke-dashoffset:0;stroke-opacity:1" d="m 815.66054,938.20402 c 0,0 25.39632,11.60256 44.62428,41.71934 14.21916,22.27124 18.66768,38.18374 18.66768,38.18374 0,0 41.61048,17.551 44.97204,55.1544 4.10856,45.9611 -53.03304,69.1551 -53.03304,69.1551" id="path5445"/> <path style="display:inline;opacity:1;vector-effect:none;fill:none;fill-opacity:1;stroke:#00222b;stroke-width:12;stroke-linecap:round;stroke-linejoin:miter;stroke-miterlimit:4;stroke-dasharray:none;stroke-dashoffset:0;stroke-opacity:1" d="m 838.84118,953.55994 c 1.36752,1.23744 35.86872,-17.3358 77.02224,22.12082 41.15364,39.45644 51.336,118.79384 51.336,118.79384" id="path5447"/> <path style="display:inline;opacity:1;vector-effect:none;fill:none;fill-opacity:1;stroke:#00222b;stroke-width:12;stroke-linecap:round;stroke-linejoin:miter;stroke-miterlimit:4;stroke-dasharray:none;stroke-dashoffset:0;stroke-opacity:1" d="m 895.92434,960.40498 c 0,0 32.37384,-15.40284 56.0016,-1.48272 27.36504,16.12202 29.69844,76.57974 29.69844,76.57974" id="path5449"/> <path style="display:inline;opacity:1;vector-effect:none;fill:none;fill-opacity:1;stroke:#00222b;stroke-width:12;stroke-linecap:round;stroke-linejoin:miter;stroke-miterlimit:4;stroke-dasharray:none;stroke-dashoffset:0;stroke-opacity:1" d="m 954.27974,959.29522 c 0,0 3.80652,-8.99952 24.26964,-15.48576 15.48762,-5.12796 33.40142,-3.6162 45.18242,0 20.4631,6.48624 24.2695,15.48576 24.2695,15.48576" id="path5451"/> <path style="display:inline;opacity:1;vector-effect:none;fill:none;fill-opacity:1;stroke:#00222b;stroke-width:12;stroke-linecap:round;stroke-linejoin:miter;stroke-miterlimit:4;stroke-dasharray:none;stroke-dashoffset:0;stroke-opacity:1" d="m 1001.1406,1819.5419 c 0,0 87.3984,54.3059 117.0969,48.7904 29.6985,-5.5154 68.7308,-24.1831 95.4594,-65.3367 26.7285,-41.1536 19.0918,-85.2771 -6.3641,-98.4292" id="path5011-5"/> <path style="display:inline;opacity:1;vector-effect:none;fill:none;fill-opacity:1;stroke:#00222b;stroke-width:12;stroke-linecap:round;stroke-linejoin:miter;stroke-miterlimit:4;stroke-dasharray:none;stroke-dashoffset:0;stroke-opacity:1" d="m 1230.2431,1741.4773 c 0,0 14.8492,-24.183 2.5456,-47.9418 -12.3037,-23.7588 -23.7588,-28.0015 -23.7588,-28.0015" id="path5013-6"/> <path style="display:inline;opacity:1;vector-effect:none;fill:none;fill-opacity:1;stroke:#00222b;stroke-width:12;stroke-linecap:round;stroke-linejoin:miter;stroke-miterlimit:4;stroke-dasharray:none;stroke-dashoffset:0;stroke-opacity:1" d="m 1231.0916,1688.4443 c 0,0 11.0309,-2.5456 9.7581,-23.7588 -1.2728,-21.2131 -9.3338,-22.0617 2.5456,-41.1535 11.8794,-19.0919 48.7904,-53.8816 48.7904,-53.8816" id="path5015-9"/> <path style="display:inline;opacity:1;vector-effect:none;fill:none;fill-opacity:1;stroke:#00222b;stroke-width:12.00075626;stroke-linecap:round;stroke-linejoin:miter;stroke-miterlimit:4;stroke-dasharray:none;stroke-dashoffset:0;stroke-opacity:1" d="m 1411.4512,1349.5346 c 0,0 78.4817,-3.7633 91.0817,-59.5632 12.6,-55.8 -15.1405,-91.1397 -15.1405,-91.1397 0,0 22.2,-10.8 21.6,-38.4 -0.6,-27.6 -49.212,-36.5079 -15.8007,-63.522 25.2,-20.3751 59.0007,6.522 72.8007,-200.47804 13.8,-207 -7.8,-383.39995 -141,-277.2 -133.2,106.2 -210.6001,296.4 -210.6001,296.4 0,0 -29.8886,12.43032 -37.594,43.3758 -8.297,33.32138 -0.8059,55.02424 22.594,67.02424 23.4,12 40.6669,0.2964 40.6669,0.2964" id="path5025-1"/> <path style="display:inline;opacity:1;vector-effect:none;fill:none;fill-opacity:1;stroke:#00222b;stroke-width:12;stroke-linecap:round;stroke-linejoin:miter;stroke-miterlimit:4;stroke-dasharray:none;stroke-dashoffset:0;stroke-opacity:1" d="m 1175.6924,998.73168 c 0,0 -16.7991,5.36122 -17.4,29.70002 -0.6,24.3 24,38.7 45.8999,43.2 21.9,4.5 35.7,-3.9 35.7,-3.9" id="path5031-0"/> <path style="display:inline;opacity:1;vector-effect:none;fill:none;fill-opacity:1;stroke:#00222b;stroke-width:12;stroke-linecap:round;stroke-linejoin:miter;stroke-miterlimit:4;stroke-dasharray:none;stroke-dashoffset:0;stroke-opacity:1" d="m 1156.1924,1026.6317 c 0,0 -26.7405,0.3887 -27.6,29.4 -1.2,40.5 58.8,51.9 58.8,51.9" id="path5048-9"/> <path style="display:inline;opacity:1;vector-effect:none;fill:none;fill-opacity:1;stroke:#00222b;stroke-width:12;stroke-linecap:round;stroke-linejoin:miter;stroke-miterlimit:4;stroke-dasharray:none;stroke-dashoffset:0;stroke-opacity:1" d="m 1108.6952,1868.4252 c 0,0 -9.0528,21.0065 -35.6028,17.7065 -26.55,-3.3 -25.7337,18.4428 -49.05,19.95 -17.761,1.9821 -35.14602,0.683 -45.80358,0 -23.31648,-1.5072 -22.5,-23.25 -49.05,-19.95 -26.55,3.3 -35.6028,-17.7065 -35.6028,-17.7065" id="path5062-8-6"/> <path style="display:inline;opacity:1;vector-effect:none;fill:none;fill-opacity:1;stroke:#00222b;stroke-width:12;stroke-linecap:round;stroke-linejoin:miter;stroke-miterlimit:4;stroke-dasharray:none;stroke-dashoffset:0;stroke-opacity:1" d="m 1186.6207,938.20402 c 0,0 -25.3964,11.60256 -44.6244,41.71934 -14.2191,22.27124 -18.6676,38.18374 -18.6676,38.18374 0,0 -41.6106,17.551 -44.972,55.1544 -4.1086,45.9611 53.033,69.1551 53.033,69.1551" id="path5445-8"/> <path style="display:inline;opacity:1;vector-effect:none;fill:none;fill-opacity:1;stroke:#00222b;stroke-width:12;stroke-linecap:round;stroke-linejoin:miter;stroke-miterlimit:4;stroke-dasharray:none;stroke-dashoffset:0;stroke-opacity:1" d="m 1163.44,953.55994 c -1.3676,1.23744 -35.8687,-17.3358 -77.0223,22.12082 -41.1536,39.45644 -51.3359,118.79384 -51.3359,118.79384" id="path5447-9"/> <path style="display:inline;opacity:1;vector-effect:none;fill:none;fill-opacity:1;stroke:#00222b;stroke-width:12;stroke-linecap:round;stroke-linejoin:miter;stroke-miterlimit:4;stroke-dasharray:none;stroke-dashoffset:0;stroke-opacity:1" d="m 1106.3569,960.40498 c 0,0 -32.374,-15.40284 -56.0016,-1.48272 -27.3651,16.12202 -29.6985,76.57974 -29.6985,76.57974" id="path5449-1"/> <path style="display:inline;opacity:1;vector-effect:none;fill:none;fill-opacity:1;stroke:#00222b;stroke-width:12;stroke-linecap:round;stroke-linejoin:miter;stroke-miterlimit:4;stroke-dasharray:none;stroke-dashoffset:0;stroke-opacity:1" d="m 606.15074,1416.9154 c 0,0 -15.50868,66.1878 37.5234,127.2188 40.47468,46.5797 60.50136,53.8586 93.68952,101.3336" id="path3934"/> <path style="display:inline;opacity:1;vector-effect:none;fill:none;fill-opacity:1;stroke:#00222b;stroke-width:12;stroke-linecap:round;stroke-linejoin:miter;stroke-miterlimit:4;stroke-dasharray:none;stroke-dashoffset:0;stroke-opacity:1" d="m 546.75374,1340.5478 c 0,0 -10.18236,118.7939 47.5176,204.4953 57.69984,85.7012 81.0822,79.3851 108.23508,131.1453 27.15288,51.7602 15.64224,69.1282 32.62056,100.5028 19.49856,36.032 57.69984,36.4867 57.69984,36.4867" id="path3936"/> <path style="display:inline;opacity:1;vector-effect:none;fill:none;fill-opacity:1;stroke:#00222b;stroke-width:12;stroke-linecap:round;stroke-linejoin:miter;stroke-miterlimit:4;stroke-dasharray:none;stroke-dashoffset:0;stroke-opacity:1" d="m 600.8645,1560.2802 c 0,0 -12.6,28.8 21.6,79.2 34.2,50.4 96,89.4 96,89.4" id="path3938"/> <path style="display:inline;opacity:1;vector-effect:none;fill:none;fill-opacity:1;stroke:#00222b;stroke-width:12;stroke-linecap:round;stroke-linejoin:miter;stroke-miterlimit:4;stroke-dasharray:none;stroke-dashoffset:0;stroke-opacity:1" d="m 1481.9197,1009.3348 c 7.909,19.8363 6.0727,36.497 -25.1273,58.097 -31.2,21.6 -37.8868,40.7984 -15.6,72 22.5,31.5 -4.8,43.2 -20.4,20.4 -15.6,-22.8 -25.2,-31.2 -49.2,-28.8 -24,2.4 -7.3144,-39.3727 -30,-43.2 -26.3595,-4.4471 -16.4296,30.9514 -39.6,30.6 -32.4018,-0.4913 -13.2,-46.2 -9.6,-87 3.6,-40.8 -4.8,-49.2 -20.4,-68.40002 -15.6,-19.2 -29.4,-46.2 -1.8,-106.2 27.6,-60 178.7485,-272.57124 234,-245.4 58.7067,30.28944 41.1036,273.7614 32.6357,334.97484 -38.8014,-8.6538 -69.8456,5.93964 -79.1793,40.72934 -9.3338,34.78964 -19.1076,55.18154 -42.4265,78.06454 -28.88,28.3404 -56.6445,36.8178 -56.6445,36.8178" id="path5027-4"/> <path style="display:inline;opacity:1;vector-effect:none;fill:none;fill-opacity:1;stroke:#00222b;stroke-width:12;stroke-linecap:round;stroke-linejoin:miter;stroke-miterlimit:4;stroke-dasharray:none;stroke-dashoffset:0;stroke-opacity:1" d="m 859.4363,1453.8263 c 0,0 -95.4594,20.3647 -140.43132,-8.4852 -44.97204,-28.8501 -43.275,-76.3675 -43.275,-76.3675 0,0 52.60872,-22.0618 117.09684,7.6366 64.48824,29.6986 62.36688,49.639 69.57936,88.247 7.21248,38.608 48.79032,35.6382 48.79032,35.6382" id="path6231"/> <path style="display:inline;opacity:1;vector-effect:none;fill:none;fill-opacity:1;stroke:#00222b;stroke-width:12;stroke-linecap:round;stroke-linejoin:miter;stroke-miterlimit:4;stroke-dasharray:none;stroke-dashoffset:0;stroke-opacity:1" d="m 656.3645,1400.9802 c 0,0 13.15056,43.3146 48.3,65.1 31.18488,19.3284 71.1,17.7 71.1,17.7" id="path6207"/> <path style="display:inline;opacity:1;vector-effect:none;fill:none;fill-opacity:1;stroke:#00222b;stroke-width:12;stroke-linecap:round;stroke-linejoin:miter;stroke-miterlimit:4;stroke-dasharray:none;stroke-dashoffset:0;stroke-opacity:1" d="m 832.8137,1399.6266 c 0,0 -12.63396,-10.5874 -17.0766,-30.653 -3.5106,-15.856 2.96988,-29.6986 2.96988,-29.6986" id="path6233"/> <path style="display:inline;opacity:1;vector-effect:none;fill:none;fill-opacity:1;stroke:#00222b;stroke-width:12;stroke-linecap:round;stroke-linejoin:miter;stroke-miterlimit:4;stroke-dasharray:none;stroke-dashoffset:0;stroke-opacity:1" d="m 675.72998,1368.9736 c 0,0 -27.31284,9.5164 -37.33224,-10.5934 -9.89484,-19.8599 9.56676,-30.3 9.56676,-30.3" id="path6235"/> <path style="display:inline;opacity:1;vector-effect:none;fill:none;fill-opacity:1;stroke:#00222b;stroke-width:12;stroke-linecap:round;stroke-linejoin:miter;stroke-miterlimit:4;stroke-dasharray:none;stroke-dashoffset:0;stroke-opacity:1" d="m 764.65286,1635.6868 c 0,0 20.96148,-3.6696 33.6894,-35.0652 12.72792,-31.3955 5.09124,-117.5211 5.09124,-117.5211" id="path6239"/> <path style="display:inline;opacity:1;vector-effect:none;fill:none;fill-opacity:1;stroke:#00222b;stroke-width:12;stroke-linecap:round;stroke-linejoin:miter;stroke-miterlimit:4;stroke-dasharray:none;stroke-dashoffset:0;stroke-opacity:1" d="m 841.1645,1410.2802 c 0,0 -5.7,16.2 -14.1,27.9 -8.4,11.7 -17.4,20.4 -17.4,20.4" id="path6274"/> <path style="display:inline;opacity:1;vector-effect:none;fill:none;fill-opacity:1;stroke:#00222b;stroke-width:12;stroke-linecap:round;stroke-linejoin:miter;stroke-miterlimit:4;stroke-dasharray:none;stroke-dashoffset:0;stroke-opacity:1" d="m 821.3645,1394.6802 c 0,0 -17.5332,57.6707 -69,47.1 -50.69532,-10.412 -52.05,-77.85 -52.05,-77.85" id="path6276"/> <path style="display:inline;opacity:1;vector-effect:none;fill:none;fill-opacity:1;stroke:#00222b;stroke-width:12;stroke-linecap:round;stroke-linejoin:miter;stroke-miterlimit:4;stroke-dasharray:none;stroke-dashoffset:0;stroke-opacity:1" d="m 1142.8687,1453.9249 c 0,0 95.4594,20.3647 140.4314,-8.4853 44.9719,-28.8499 43.2749,-76.3675 43.2749,-76.3675 0,0 -52.6087,-22.0618 -117.0969,7.6368 -64.4881,29.6984 -62.3668,49.6388 -69.5793,88.2469 -7.2125,38.608 -48.7903,35.6382 -48.7903,35.6382" id="path6231-8"/> <path style="display:inline;opacity:1;vector-effect:none;fill:none;fill-opacity:1;stroke:#00222b;stroke-width:12;stroke-linecap:round;stroke-linejoin:miter;stroke-miterlimit:4;stroke-dasharray:none;stroke-dashoffset:0;stroke-opacity:1" d="m 1345.9405,1401.0788 c 0,0 -13.1506,43.3145 -48.3,65.1 -31.1849,19.3283 -71.1,17.7 -71.1,17.7" id="path6207-9"/> <path style="display:inline;opacity:1;vector-effect:none;fill:none;fill-opacity:1;stroke:#00222b;stroke-width:12;stroke-linecap:round;stroke-linejoin:miter;stroke-miterlimit:4;stroke-dasharray:none;stroke-dashoffset:0;stroke-opacity:1" d="m 1169.4913,1399.7251 c 0,0 12.6339,-10.5873 17.0766,-30.653 3.5106,-15.8559 -2.9699,-29.6985 -2.9699,-29.6985" id="path6233-9"/> <path style="display:inline;opacity:1;vector-effect:none;fill:none;fill-opacity:1;stroke:#00222b;stroke-width:12;stroke-linecap:round;stroke-linejoin:miter;stroke-miterlimit:4;stroke-dasharray:none;stroke-dashoffset:0;stroke-opacity:1" d="m 1326.575,1369.0721 c 0,0 27.3128,9.5165 37.3322,-10.5933 9.8949,-19.8598 -9.5667,-30.3 -9.5667,-30.3" id="path6235-7"/> <path style="display:inline;opacity:1;vector-effect:none;fill:none;fill-opacity:1;stroke:#00222b;stroke-width:12;stroke-linecap:round;stroke-linejoin:miter;stroke-miterlimit:4;stroke-dasharray:none;stroke-dashoffset:0;stroke-opacity:1" d="m 1237.6522,1635.7853 c 0,0 -20.9616,-3.6695 -33.6895,-35.0651 -12.7279,-31.3955 -5.0912,-117.521 -5.0912,-117.521" id="path6239-5"/> <path style="display:inline;opacity:1;vector-effect:none;fill:#deaa87;fill-opacity:1;stroke:#00222b;stroke-width:12;stroke-linecap:round;stroke-linejoin:miter;stroke-miterlimit:4;stroke-dasharray:none;stroke-dashoffset:0;stroke-opacity:1" d="m 1161.1405,1410.3788 c 0,0 5.7,16.2 14.1,27.9 8.4,11.7 17.4,20.4 17.4,20.4" id="path6274-8"/> <path style="display:inline;opacity:1;vector-effect:none;fill:none;fill-opacity:1;stroke:#00222b;stroke-width:12;stroke-linecap:round;stroke-linejoin:miter;stroke-miterlimit:4;stroke-dasharray:none;stroke-dashoffset:0;stroke-opacity:1" d="m 1180.9405,1394.7788 c 0,0 17.5332,57.6706 69,47.1 50.6953,-10.4121 52.05,-77.85 52.05,-77.85" id="path6276-7"/> <path style="display:inline;opacity:1;vector-effect:none;fill:none;fill-opacity:1;stroke:#00222b;stroke-width:12;stroke-linecap:round;stroke-linejoin:miter;stroke-miterlimit:4;stroke-dasharray:none;stroke-dashoffset:0;stroke-opacity:1" d="m 1396.1543,1417.014 c 0,0 15.5086,66.1877 -37.5235,127.2188 -40.4747,46.5797 -60.5013,53.8587 -93.6895,101.3336" id="path3934-6"/> <path style="display:inline;opacity:1;vector-effect:none;fill:none;fill-opacity:1;stroke:#00222b;stroke-width:12;stroke-linecap:round;stroke-linejoin:miter;stroke-miterlimit:4;stroke-dasharray:none;stroke-dashoffset:0;stroke-opacity:1" d="m 1455.5511,1340.6464 c 0,0 10.1824,118.794 -47.5174,204.4952 -57.6999,85.7014 -81.0823,79.3852 -108.2352,131.1454 -27.1528,51.7602 -15.6422,69.1281 -32.6205,100.5027 -19.4986,36.0321 -57.6999,36.4867 -57.6999,36.4867" id="path3936-3"/> <path style="display:inline;opacity:1;vector-effect:none;fill:none;fill-opacity:1;stroke:#00222b;stroke-width:12;stroke-linecap:round;stroke-linejoin:miter;stroke-miterlimit:4;stroke-dasharray:none;stroke-dashoffset:0;stroke-opacity:1" d="m 1401.4405,1560.3787 c 0,0 12.6,28.8 -21.6,79.2 -34.2,50.4 -96,89.4 -96,89.4" id="path3938-0"/> <path style="display:inline;opacity:1;vector-effect:none;fill:none;fill-opacity:1;stroke:#00222b;stroke-width:12;stroke-linecap:round;stroke-linejoin:miter;stroke-miterlimit:4;stroke-dasharray:none;stroke-dashoffset:0;stroke-opacity:1" d="m 849.67826,1357.9427 c 0,0 2.90316,11.6808 19.44336,20.0175 16.49484,8.314 30.97128,2.9699 30.97128,2.9699" id="path6237-2-4"/> <path style="display:inline;opacity:1;vector-effect:none;fill:none;fill-opacity:1;stroke:#00222b;stroke-width:12;stroke-linecap:round;stroke-linejoin:miter;stroke-miterlimit:4;stroke-dasharray:none;stroke-dashoffset:0;stroke-opacity:1" d="m 1152.6267,1358.0412 c 0,0 -2.9032,11.6808 -19.4434,20.0177 -16.4948,8.3139 -30.9712,2.9699 -30.9712,2.9699" id="path6237-2-4-5"/> <path style="display:inline;opacity:1;vector-effect:none;fill:none;fill-opacity:1;stroke:#00222b;stroke-width:12;stroke-linecap:round;stroke-linejoin:miter;stroke-miterlimit:4;stroke-dasharray:none;stroke-dashoffset:0;stroke-opacity:1" d="m 1127.1709,1193.4268 c 0,0 -17.8192,17.8191 -45.8206,16.9705 -28.0014,-0.8485 -33.0926,-22.486 -33.0926,-22.486" id="path6270-4"/> <path style="display:inline;opacity:1;vector-effect:none;fill:none;fill-opacity:1;stroke:#00222b;stroke-width:12;stroke-linecap:round;stroke-linejoin:miter;stroke-miterlimit:4;stroke-dasharray:none;stroke-dashoffset:0;stroke-opacity:1" d="m 875.1341,1193.3282 c 0,0 17.81904,17.8191 45.82056,16.9706 28.0014,-0.8486 33.09252,-22.486 33.09252,-22.486" id="path6270-4-9"/> </g> </svg>